<svg width="250" height="250" viewBox="0 0 250 250" fill="none" xmlns="http://www.w3.org/2000/svg">
<rect width="250" height="250" rx="125" fill="white"/>
<path d="M90 132H83.568V117.888C83.568 115.904 83.216 114.448 82.512 113.52C81.84 112.56 80.896 112.08 79.68 112.08C78.432 112.08 77.232 112.576 76.08 113.568C74.96 114.528 74.16 115.792 73.68 117.36V132H67.248V117.888C67.248 115.872 66.896 114.4 66.192 113.472C65.52 112.544 64.576 112.08 63.36 112.08C62.112 112.08 60.912 112.56 59.76 113.52C58.64 114.48 57.84 115.744 57.36 117.312V132H50.928V106.848H56.736V111.504C57.696 109.872 58.976 108.624 60.576 107.76C62.176 106.864 64.016 106.416 66.096 106.416C68.176 106.416 69.792 106.928 70.944 107.952C72.128 108.976 72.88 110.24 73.2 111.744C74.224 110.016 75.52 108.704 77.088 107.808C78.688 106.88 80.48 106.416 82.464 106.416C84.032 106.416 85.296 106.704 86.256 107.28C87.248 107.824 88.016 108.576 88.56 109.536C89.104 110.464 89.472 111.52 89.664 112.704C89.888 113.888 90 115.088 90 116.304V132ZM96.8959 141.408C95.7119 141.408 94.5759 141.216 93.4879 140.832C92.3999 140.48 91.4079 139.92 90.5119 139.152L93.2959 134.784C93.6479 135.168 94.0799 135.44 94.5919 135.6C95.1039 135.76 95.6159 135.84 96.1279 135.84C96.7039 135.84 97.2159 135.696 97.6639 135.408C98.1439 135.152 98.5119 134.784 98.7679 134.304C99.0559 133.824 99.1999 133.28 99.1999 132.672V106.848H105.632V132.192C105.632 133.984 105.232 135.584 104.432 136.992C103.664 138.4 102.624 139.488 101.312 140.256C100.032 141.024 98.5599 141.408 96.8959 141.408ZM99.1999 103.344V96.96H105.632V103.344H99.1999ZM124.1 132.48C121.956 132.48 119.908 132.128 117.956 131.424C116.004 130.72 114.324 129.68 112.916 128.304L115.22 124.128C116.724 125.344 118.196 126.24 119.636 126.816C121.108 127.392 122.516 127.68 123.86 127.68C125.108 127.68 126.1 127.456 126.836 127.008C127.604 126.56 127.988 125.888 127.988 124.992C127.988 124.384 127.78 123.92 127.364 123.6C126.948 123.248 126.34 122.944 125.54 122.688C124.772 122.432 123.828 122.144 122.708 121.824C120.852 121.216 119.3 120.624 118.052 120.048C116.804 119.472 115.86 118.752 115.22 117.888C114.612 116.992 114.308 115.856 114.308 114.48C114.308 112.816 114.724 111.392 115.556 110.208C116.42 108.992 117.604 108.048 119.108 107.376C120.644 106.704 122.436 106.368 124.484 106.368C126.276 106.368 127.972 106.656 129.572 107.232C131.172 107.776 132.628 108.672 133.94 109.92L131.348 114C130.068 113.008 128.852 112.288 127.7 111.84C126.548 111.36 125.38 111.12 124.196 111.12C123.524 111.12 122.884 111.2 122.276 111.36C121.7 111.52 121.22 111.792 120.836 112.176C120.484 112.528 120.308 113.04 120.308 113.712C120.308 114.32 120.468 114.8 120.788 115.152C121.14 115.472 121.652 115.76 122.324 116.016C123.028 116.272 123.876 116.56 124.868 116.88C126.884 117.456 128.58 118.048 129.956 118.656C131.364 119.264 132.42 120.016 133.124 120.912C133.828 121.776 134.18 122.976 134.18 124.512C134.18 127.008 133.268 128.96 131.444 130.368C129.62 131.776 127.172 132.48 124.1 132.48ZM153.53 132.48C151.482 132.48 149.642 132.144 148.01 131.472C146.378 130.768 144.986 129.808 143.834 128.592C142.714 127.376 141.85 125.984 141.242 124.416C140.634 122.848 140.33 121.2 140.33 119.472C140.33 117.712 140.634 116.048 141.242 114.48C141.85 112.912 142.714 111.52 143.834 110.304C144.986 109.088 146.378 108.144 148.01 107.472C149.642 106.768 151.482 106.416 153.53 106.416C155.578 106.416 157.402 106.768 159.002 107.472C160.634 108.144 162.026 109.088 163.178 110.304C164.33 111.52 165.194 112.912 165.77 114.48C166.378 116.048 166.682 117.712 166.682 119.472C166.682 121.2 166.378 122.848 165.77 124.416C165.194 125.984 164.33 127.376 163.178 128.592C162.058 129.808 160.682 130.768 159.05 131.472C157.418 132.144 155.578 132.48 153.53 132.48ZM146.954 119.472C146.954 120.944 147.242 122.256 147.818 123.408C148.394 124.528 149.178 125.408 150.17 126.048C151.162 126.688 152.282 127.008 153.53 127.008C154.746 127.008 155.85 126.688 156.842 126.048C157.834 125.376 158.618 124.48 159.194 123.36C159.802 122.208 160.106 120.896 160.106 119.424C160.106 117.984 159.802 116.688 159.194 115.536C158.618 114.384 157.834 113.488 156.842 112.848C155.85 112.208 154.746 111.888 153.53 111.888C152.282 111.888 151.162 112.224 150.17 112.896C149.178 113.536 148.394 114.432 147.818 115.584C147.242 116.704 146.954 118 146.954 119.472ZM197.76 132H191.328V117.888C191.328 115.872 190.976 114.4 190.272 113.472C189.568 112.544 188.592 112.08 187.344 112.08C186.48 112.08 185.6 112.304 184.704 112.752C183.84 113.2 183.056 113.824 182.352 114.624C181.648 115.392 181.136 116.288 180.816 117.312V132H174.384V106.848H180.192V111.504C180.832 110.416 181.648 109.504 182.64 108.768C183.632 108 184.768 107.424 186.048 107.04C187.36 106.624 188.736 106.416 190.176 106.416C191.744 106.416 193.024 106.704 194.016 107.28C195.04 107.824 195.808 108.576 196.32 109.536C196.864 110.464 197.232 111.52 197.424 112.704C197.648 113.888 197.76 115.088 197.76 116.304V132Z" fill="black"/>
<path d="M55.712 153V147.32H59.44V147.816H56.272V149.904H58.944V150.368H56.272V153H55.712ZM62.3429 153V147.32H64.7429C64.9883 147.32 65.2123 147.371 65.4149 147.472C65.6176 147.573 65.7936 147.712 65.9429 147.888C66.0976 148.059 66.2149 148.251 66.2949 148.464C66.3803 148.672 66.4229 148.885 66.4229 149.104C66.4229 149.376 66.3696 149.632 66.2629 149.872C66.1616 150.112 66.0149 150.315 65.8229 150.48C65.6363 150.645 65.4149 150.755 65.1589 150.808L66.5509 153H65.9189L64.5829 150.904H62.9029V153H62.3429ZM62.9029 150.408H64.7589C64.9829 150.408 65.1776 150.347 65.3429 150.224C65.5083 150.101 65.6363 149.941 65.7269 149.744C65.8176 149.541 65.8629 149.328 65.8629 149.104C65.8629 148.875 65.8096 148.664 65.7029 148.472C65.6016 148.275 65.4629 148.117 65.2869 148C65.1163 147.877 64.9243 147.816 64.7109 147.816H62.9029V150.408ZM71.7775 153.04C71.3775 153.04 71.0148 152.96 70.6895 152.8C70.3642 152.64 70.0842 152.424 69.8495 152.152C69.6148 151.875 69.4335 151.565 69.3055 151.224C69.1775 150.877 69.1135 150.523 69.1135 150.16C69.1135 149.781 69.1802 149.421 69.3135 149.08C69.4468 148.733 69.6335 148.427 69.8735 148.16C70.1188 147.888 70.4042 147.675 70.7295 147.52C71.0548 147.36 71.4068 147.28 71.7855 147.28C72.1855 147.28 72.5482 147.363 72.8735 147.528C73.1988 147.693 73.4762 147.915 73.7055 148.192C73.9402 148.469 74.1215 148.779 74.2495 149.12C74.3775 149.461 74.4415 149.811 74.4415 150.168C74.4415 150.547 74.3748 150.909 74.2415 151.256C74.1082 151.597 73.9215 151.904 73.6815 152.176C73.4415 152.443 73.1588 152.653 72.8335 152.808C72.5082 152.963 72.1562 153.04 71.7775 153.04ZM69.6735 150.16C69.6735 150.469 69.7242 150.768 69.8255 151.056C69.9268 151.339 70.0708 151.592 70.2575 151.816C70.4442 152.035 70.6655 152.211 70.9215 152.344C71.1828 152.472 71.4682 152.536 71.7775 152.536C72.1028 152.536 72.3935 152.469 72.6495 152.336C72.9108 152.197 73.1322 152.016 73.3135 151.792C73.5002 151.563 73.6415 151.307 73.7375 151.024C73.8335 150.741 73.8815 150.453 73.8815 150.16C73.8815 149.851 73.8308 149.555 73.7295 149.272C73.6282 148.989 73.4815 148.736 73.2895 148.512C73.1028 148.288 72.8815 148.112 72.6255 147.984C72.3695 147.856 72.0868 147.792 71.7775 147.792C71.4575 147.792 71.1668 147.859 70.9055 147.992C70.6495 148.125 70.4282 148.307 70.2415 148.536C70.0602 148.76 69.9188 149.013 69.8175 149.296C69.7215 149.579 69.6735 149.867 69.6735 150.16ZM82.4493 153V148.376L80.3933 151.968H80.0413L77.9773 148.376V153H77.4173V147.32H77.9933L80.2093 151.208L82.4413 147.32H83.0093V153H82.4493ZM89.936 150.12C89.936 149.773 89.9947 149.435 90.112 149.104C90.2347 148.768 90.4107 148.464 90.64 148.192C90.8693 147.915 91.152 147.696 91.488 147.536C91.824 147.371 92.2053 147.288 92.632 147.288C93.1387 147.288 93.5707 147.405 93.928 147.64C94.2907 147.869 94.5573 148.165 94.728 148.528L94.288 148.8C94.1653 148.549 94.0107 148.352 93.824 148.208C93.6373 148.059 93.4373 147.952 93.224 147.888C93.016 147.824 92.808 147.792 92.6 147.792C92.2587 147.792 91.9573 147.861 91.696 148C91.4347 148.133 91.2133 148.315 91.032 148.544C90.856 148.768 90.7227 149.021 90.632 149.304C90.5413 149.581 90.496 149.864 90.496 150.152C90.496 150.467 90.5493 150.768 90.656 151.056C90.7627 151.344 90.912 151.6 91.104 151.824C91.296 152.043 91.52 152.219 91.776 152.352C92.0373 152.48 92.32 152.544 92.624 152.544C92.8373 152.544 93.056 152.507 93.28 152.432C93.504 152.357 93.712 152.243 93.904 152.088C94.1013 151.933 94.2587 151.733 94.376 151.488L94.84 151.728C94.7227 152.011 94.5413 152.251 94.296 152.448C94.0507 152.645 93.776 152.795 93.472 152.896C93.1733 152.997 92.88 153.048 92.592 153.048C92.2027 153.048 91.8453 152.965 91.52 152.8C91.1947 152.629 90.912 152.405 90.672 152.128C90.4373 151.845 90.256 151.531 90.128 151.184C90 150.832 89.936 150.477 89.936 150.12ZM102.196 147.32V153H101.644V150.344H98.2764V153H97.7164V147.32H98.2764V149.848H101.644V147.32H102.196ZM107.303 147.32H107.775L110.135 153H109.543L108.807 151.224H106.255L105.527 153H104.927L107.303 147.32ZM108.679 150.784L107.535 147.976L106.375 150.784H108.679ZM114.946 153.04C114.546 153.04 114.183 152.96 113.858 152.8C113.533 152.64 113.253 152.424 113.018 152.152C112.783 151.875 112.602 151.565 112.474 151.224C112.346 150.877 112.282 150.523 112.282 150.16C112.282 149.781 112.349 149.421 112.482 149.08C112.615 148.733 112.802 148.427 113.042 148.16C113.287 147.888 113.573 147.675 113.898 147.52C114.223 147.36 114.575 147.28 114.954 147.28C115.354 147.28 115.717 147.363 116.042 147.528C116.367 147.693 116.645 147.915 116.874 148.192C117.109 148.469 117.29 148.779 117.418 149.12C117.546 149.461 117.61 149.811 117.61 150.168C117.61 150.547 117.543 150.909 117.41 151.256C117.277 151.597 117.09 151.904 116.85 152.176C116.61 152.443 116.327 152.653 116.002 152.808C115.677 152.963 115.325 153.04 114.946 153.04ZM112.842 150.16C112.842 150.469 112.893 150.768 112.994 151.056C113.095 151.339 113.239 151.592 113.426 151.816C113.613 152.035 113.834 152.211 114.09 152.344C114.351 152.472 114.637 152.536 114.946 152.536C115.271 152.536 115.562 152.469 115.818 152.336C116.079 152.197 116.301 152.016 116.482 151.792C116.669 151.563 116.81 151.307 116.906 151.024C117.002 150.741 117.05 150.453 117.05 150.16C117.05 149.851 116.999 149.555 116.898 149.272C116.797 148.989 116.65 148.736 116.458 148.512C116.271 148.288 116.05 148.112 115.794 147.984C115.538 147.856 115.255 147.792 114.946 147.792C114.626 147.792 114.335 147.859 114.074 147.992C113.818 148.125 113.597 148.307 113.41 148.536C113.229 148.76 113.087 149.013 112.986 149.296C112.89 149.579 112.842 149.867 112.842 150.16ZM123.906 148.384C123.826 148.293 123.732 148.213 123.626 148.144C123.519 148.069 123.399 148.005 123.266 147.952C123.132 147.899 122.988 147.856 122.834 147.824C122.684 147.792 122.524 147.776 122.354 147.776C121.858 147.776 121.492 147.872 121.258 148.064C121.028 148.251 120.914 148.507 120.914 148.832C120.914 149.056 120.967 149.232 121.074 149.36C121.186 149.488 121.359 149.592 121.594 149.672C121.828 149.752 122.127 149.835 122.49 149.92C122.895 150.005 123.244 150.107 123.538 150.224C123.831 150.341 124.058 150.501 124.218 150.704C124.378 150.901 124.458 151.171 124.458 151.512C124.458 151.773 124.407 152 124.306 152.192C124.204 152.384 124.063 152.544 123.882 152.672C123.7 152.8 123.484 152.896 123.234 152.96C122.983 153.019 122.708 153.048 122.41 153.048C122.116 153.048 121.834 153.019 121.562 152.96C121.295 152.896 121.042 152.805 120.802 152.688C120.562 152.565 120.338 152.411 120.13 152.224L120.41 151.768C120.511 151.875 120.631 151.976 120.77 152.072C120.914 152.163 121.071 152.245 121.242 152.32C121.418 152.395 121.604 152.453 121.802 152.496C122.004 152.533 122.212 152.552 122.426 152.552C122.879 152.552 123.231 152.469 123.482 152.304C123.738 152.139 123.866 151.893 123.866 151.568C123.866 151.333 123.802 151.147 123.674 151.008C123.546 150.864 123.354 150.747 123.098 150.656C122.842 150.565 122.527 150.477 122.154 150.392C121.759 150.301 121.426 150.2 121.154 150.088C120.882 149.976 120.676 149.829 120.538 149.648C120.404 149.461 120.338 149.216 120.338 148.912C120.338 148.56 120.423 148.264 120.594 148.024C120.77 147.779 121.01 147.595 121.314 147.472C121.618 147.344 121.967 147.28 122.362 147.28C122.612 147.28 122.844 147.307 123.058 147.36C123.276 147.408 123.476 147.48 123.658 147.576C123.844 147.672 124.018 147.792 124.178 147.936L123.906 148.384ZM135.122 147.816H133.098V153H132.538V147.816H130.514V147.32H135.122V147.816ZM139.985 153.04C139.585 153.04 139.223 152.96 138.897 152.8C138.572 152.64 138.292 152.424 138.057 152.152C137.823 151.875 137.641 151.565 137.513 151.224C137.385 150.877 137.321 150.523 137.321 150.16C137.321 149.781 137.388 149.421 137.521 149.08C137.655 148.733 137.841 148.427 138.081 148.16C138.327 147.888 138.612 147.675 138.937 147.52C139.263 147.36 139.615 147.28 139.993 147.28C140.393 147.28 140.756 147.363 141.081 147.528C141.407 147.693 141.684 147.915 141.913 148.192C142.148 148.469 142.329 148.779 142.457 149.12C142.585 149.461 142.649 149.811 142.649 150.168C142.649 150.547 142.583 150.909 142.449 151.256C142.316 151.597 142.129 151.904 141.889 152.176C141.649 152.443 141.367 152.653 141.041 152.808C140.716 152.963 140.364 153.04 139.985 153.04ZM137.881 150.16C137.881 150.469 137.932 150.768 138.033 151.056C138.135 151.339 138.279 151.592 138.465 151.816C138.652 152.035 138.873 152.211 139.129 152.344C139.391 152.472 139.676 152.536 139.985 152.536C140.311 152.536 140.601 152.469 140.857 152.336C141.119 152.197 141.34 152.016 141.521 151.792C141.708 151.563 141.849 151.307 141.945 151.024C142.041 150.741 142.089 150.453 142.089 150.16C142.089 149.851 142.039 149.555 141.937 149.272C141.836 148.989 141.689 148.736 141.497 148.512C141.311 148.288 141.089 148.112 140.833 147.984C140.577 147.856 140.295 147.792 139.985 147.792C139.665 147.792 139.375 147.859 139.113 147.992C138.857 148.125 138.636 148.307 138.449 148.536C138.268 148.76 138.127 149.013 138.025 149.296C137.929 149.579 137.881 149.867 137.881 150.16ZM149.208 150.12C149.208 149.773 149.267 149.435 149.384 149.104C149.507 148.768 149.683 148.464 149.912 148.192C150.142 147.915 150.424 147.696 150.76 147.536C151.096 147.371 151.478 147.288 151.904 147.288C152.411 147.288 152.843 147.405 153.2 147.64C153.563 147.869 153.83 148.165 154 148.528L153.56 148.8C153.438 148.549 153.283 148.352 153.096 148.208C152.91 148.059 152.71 147.952 152.496 147.888C152.288 147.824 152.08 147.792 151.872 147.792C151.531 147.792 151.23 147.861 150.968 148C150.707 148.133 150.486 148.315 150.304 148.544C150.128 148.768 149.995 149.021 149.904 149.304C149.814 149.581 149.768 149.864 149.768 150.152C149.768 150.467 149.822 150.768 149.928 151.056C150.035 151.344 150.184 151.6 150.376 151.824C150.568 152.043 150.792 152.219 151.048 152.352C151.31 152.48 151.592 152.544 151.896 152.544C152.11 152.544 152.328 152.507 152.552 152.432C152.776 152.357 152.984 152.243 153.176 152.088C153.374 151.933 153.531 151.733 153.648 151.488L154.112 151.728C153.995 152.011 153.814 152.251 153.568 152.448C153.323 152.645 153.048 152.795 152.744 152.896C152.446 152.997 152.152 153.048 151.864 153.048C151.475 153.048 151.118 152.965 150.792 152.8C150.467 152.629 150.184 152.405 149.944 152.128C149.71 151.845 149.528 151.531 149.4 151.184C149.272 150.832 149.208 150.477 149.208 150.12ZM156.989 153V147.32H157.549V152.504H160.829V153H156.989ZM165.333 147.32H165.805L168.165 153H167.573L166.837 151.224H164.285L163.557 153H162.957L165.333 147.32ZM166.709 150.784L165.565 147.976L164.405 150.784H166.709ZM170.899 153V147.32H173.299C173.544 147.32 173.768 147.371 173.971 147.472C174.174 147.573 174.35 147.712 174.499 147.888C174.654 148.059 174.771 148.251 174.851 148.464C174.936 148.672 174.979 148.885 174.979 149.104C174.979 149.376 174.926 149.632 174.819 149.872C174.718 150.112 174.571 150.315 174.379 150.48C174.192 150.645 173.971 150.755 173.715 150.808L175.107 153H174.475L173.139 150.904H171.459V153H170.899ZM171.459 150.408H173.315C173.539 150.408 173.734 150.347 173.899 150.224C174.064 150.101 174.192 149.941 174.283 149.744C174.374 149.541 174.419 149.328 174.419 149.104C174.419 148.875 174.366 148.664 174.259 148.472C174.158 148.275 174.019 148.117 173.843 148C173.672 147.877 173.48 147.816 173.267 147.816H171.459V150.408ZM178.045 153V147.32H178.605V153H178.045ZM185.982 147.816H183.958V153H183.398V147.816H181.374V147.32H185.982V147.816ZM188.785 147.32L190.641 150.376L192.513 147.32H193.121L190.921 150.888V153H190.361V150.872L188.169 147.32H188.785Z" fill="black"/>
</svg>
